# xmcd
#
# Track frame offsets: 
#        150
#        16909
#        28960
#        42493
#        64802
#        81059
#        101776
#        116855
#        132587
#        144419
#        156142
#        173953
#        198903
#        216580
#        224347
#
# Disc length: 3143 seconds
#
# Revision: 0
# Processed by: cddbd v1.5.2PL0 Copyright (c) Steve Scherf et al.
# Submitted via: ExactAudioCopy v1.0b3
#
DISCID=e80c450f
DTITLE=Jay Willie Blues Band - New York Minute
DYEAR=2013
DGENRE=Blues
TTITLE0=Hollywood
TTITLE1=New York Minute
TTITLE2=Chain Smokin
TTITLE3=You Hurt Me
TTITLE4=It s Your Thing
TTITLE5=Devilbones
TTITLE6=I Can t Be Satisfied
TTITLE7=Champagne and Reefer
TTITLE8=The Wobble
TTITLE9=Tattooed You
TTITLE10=Watch Pocket
TTITLE11=Goin Down Slow
TTITLE12=Hoodoo
TTITLE13=Best Side of You
TTITLE14=That Ain t It
EXTD=
EXTT0=
EXTT1=
EXTT2=
EXTT3=
EXTT4=
EXTT5=
EXTT6=
EXTT7=
EXTT8=
EXTT9=
EXTT10=
EXTT11=
EXTT12=
EXTT13=
EXTT14=
PLAYORDER=
